<svg xmlns="http://www.w3.org/2000/svg" height="800" width="1200" viewBox="-15.824595 -3.850375 137.14649 23.10225"><path d="M61.1113 0l-6.6142 15.0883h1.417l2.316-5.2892h5.7655l2.3319 5.2892h1.399zm-.008 3.236l2.3287 5.2822h-4.6408zm24.065 11.849h1.28V.3132h-1.28zM45.003 6.8342L38.2542.0326l.0074 15.0524h1.2813V3.1533l5.4458 5.5114 5.5474-5.5396V15.085h1.28V.0238zm46.6858-4.7254v12.9763H92.97V3.6325l9.8982 11.769V.3132h-1.2813v11.5062L91.6888.064zM71.8059 1.607h4.9195v.003c1.4354 0 2.601 1.1512 2.6289 2.5803v.244c-.028 1.4288-1.1935 2.5796-2.629 2.5796v.005H71.806zm7.9992 13.484l1.4468-.0004-3.542-6.9152c1.589-.4113 2.786-1.7914 2.9218-3.4745h.004v-.0815c.005-.0787.0123-.1573.0123-.2378h-.0123v-.1382h.0123c0-.0808-.007-.1591-.0123-.2385v-.004C80.51 1.9477 78.81.3214 76.7255.3214h-6.2008V15.089h1.2813V8.2998h4.5184zM9.1465 11.0893h-.012c0 1.5018-1.2174 2.7185-2.7196 2.7185v.001H1.281V8.3083l5.3118.0205v.004c.9243 0 1.728.4498 2.1971 1.1787.1972.412.3447.8276.3447 1.3169l.012.001zM6.1994 1.607v.003c1.4383 0 2.6056 1.1543 2.6307 2.5866v.231c-.025 1.432-1.1924 2.5965-2.6307 2.5965H1.281V1.6069zm4.2192 9.126c-.0183-.7158-.1979-1.3557-.5507-1.9261-.3372-.5401-.7923-.973-1.3292-1.2778.8784-.6565 1.4746-1.6715 1.5677-2.8282h.0042v-.0815c.005-.0787.012-.1574.012-.2378h-.012v-.1383h.012c0-.0808-.0071-.159-.012-.2385v-.004h-.0003C9.9843 1.9477 8.2843.3203 6.1993.3203v.006L0 .3183v14.7712h6.4368v-.002c2.1773-.012 3.9412-1.7586 3.985-3.9279h.0053v-.4261zm17.0088 3.3026c-3.1736 0-5.8022-2.3319-6.2647-5.3767h-.0078a6.18 6.18 0 01-.0702-.9349c0-.2786.0156-.5397.0505-.8089h.0046c.3863-3.1302 3.0533-5.5541 6.2876-5.5541 3.2346 0 5.8984 2.4109 6.2843 5.5407.036.2738.0515.5394.0515.8223 0 .3253-.0236.6336-.0712.9451-.4629 3.0449-3.091 5.3665-6.2646 5.3665m-7.5731-5.3767c.4727 3.763 3.6816 6.675 7.573 6.675 3.8919 0 7.1029-2.915 7.576-6.6782a7.8034 7.8034 0 00.0582-.9317c0-.2892-.0117-.551-.043-.8329-.3927-3.8488-3.6386-6.8276-7.5911-6.8276-3.944 0-7.1882 2.9912-7.5922 6.8276h-.0056c-.0314.2819-.043.5437-.043.833 0 .3146.0215.6272.0586.9316m84.5902-7.4133c.1644 0 .4043.0275.4043-.2078 0-.1803-.1471-.2021-.2893-.2021h-.3312v.4099zm.5443.646h-.1696l-.3306-.5335h-.2603v.5334h-.1422V.731h.5066c.3065 0 .4092.115.4092.3065 0 .2269-.1584.3119-.363.3175zm.3528-.58c0-.5034-.3662-.8971-.8696-.8971-.5059 0-.8756.3937-.8756.897 0 .5088.3697.9028.8756.9028.5034 0 .8696-.394.8696-.9027m-1.9096 0c0-.569.465-1.0344 1.04-1.0344.5712 0 1.0344.4653 1.0344 1.0344 0 .5743-.4632 1.0396-1.0344 1.0396-.575 0-1.04-.4653-1.04-1.0396" fill="#263d96"/><path d="M14.2197.3746l-.2857.164-.2508.1905-.078.1732-.104.1471-.0244.053-.0085.0528.0159.0586.0952.2597.1644.104.1901.2163.1387.1298.199.0952.1993.0607h.2769l.182.0346.1987.0173.2684.0173.2593.0173.3203-.0258.2427-.0695.2943-.1214.1301-.1467.1468-.1387.1213-.1905-.0092-.199-.0515-.2857-.3115-.4501-.2769-.2078-.1365-.067-.1027-.0402-.0984-.0138-.3203.0261-.32-.0526-.1563-.0254-.1986.043-.26.0349-.1644.0603z" fill="#f15029" fill-rule="evenodd"/><path d="M13.8129 5.1092l1.5406.0349.23-.048.2963-.006.2953.0307.2257.0635.1726.1188.0627.0787.04.0864.0098.0921-.0265.0931-.0695.0924-.1178.0875-.1792.0353-.3126.0008-.8452-.0638-1.2919-.1468-.049-.0215-.029-.0508-.0127-.158z" fill="#ed192e" fill-rule="evenodd"/><path d="M14.0382 7.3593l.2335.0903.1179.0423.1157-.003 1.047-.0473.4198.0363.3292.0808.1474.0392.0847.0346.0691.0515.0741.1306.012.128-.0314.108-.0571.0702v.0702l-1.0238-.002-.3429.004-.3383-.0296-.3408-.06-.302-.0487-.2205-.0335-.0857-.0236-.0596-.0557-.0864-.18-.0389-.1943.277-.2075m.2074-.8307l.1323.0822.086.05.0936.0255.068-.0138.0773-.0384.0794-.0381.0758-.0155.1352.0476.1439.0494.1206-.0367.1221-.0367.1457.054.0702.0282h.0695l.4487-.061.3436.055.0223.0145.008.0173-.0094.0423-.0152.0455.0138.0445.0853.0504.0967.0378.0384.0289.0254.0427.0071.0624-.0173.087-.0317.0435-.0603.0335-.1951.042-.6128.024-.8791-.1147-.7638-.1404-.1122-.0473-.0857-.0995-.0536-.12-.0187-.1079z" fill="#ec047c" fill-rule="evenodd"/><path d="M14.0382 8.5367l.467.0607.1539.0159.1358-.0222.1789-.019.2825.0233.4057.006.41-.0215.1382-.003.1221.049.2117.1778.0691.0861.0416.104.0103.1108-.0261.1126-.1239.3478-.0712.1524-.1034.1224-.0575.0265-.0726.005-.1722-.0324-.1806-.0487-.1552-.0194-.1101.0282-.0995.0476-.1023.0434-.1168.013-.3316-.0868-.1859-.0275-.2162.0378-.0586.004-.0533-.0233-.0532-.0282-.0597-.0152-.1316-.004-.0493-.0145-.0272-.031-.1556-.2427-.1714-.1996-.0685-.091-.024-.1076.0413-.1267.0917-.1344z" fill="#aa118e" fill-rule="evenodd"/><path d="M14.6438 10.9607l.1715-.009.1746.0169.9934.098.2787.0428.2653.073.119.073.1057.109.0896.1563.0702.2116.0523.3599-.0173.1795-.0674.1662-.0903.1069-.121.0914-.32.1393-.8449.107-.265-.0347-.2603-.073-.2554-.0716-.2515-.0289-.3535-.0427-.2635-.1302-.1775-.1855-.0952-.2106-.0233-.236.0564-.2011.115-.1669.1524-.1365.332-.1831.2268-.0787.0558-.0282.0384-.04.0424-.0412z" fill="#3a3899" fill-rule="evenodd"/><path d="M15.4513 13.3945l.325.0296.339.1241.0988.0921.081.0751.1719.0367.0794.0226.0536.049.0864.3867.0071.2466-.0395.2032-.074.1294-.103.1112-.2784.1767-.35.1168-.3909.0593-.4032.006-.3849-.0427-.3372-.089-.2597-.1315-.0811-.0772-.0557-.0914-.0688-.2075-.024-.231.0476-.2011.1034-.1715.1443-.1442.3481-.2011.3243-.0903.3263-.0984z" fill="#062849" fill-rule="evenodd"/></svg>