<svg xmlns="http://www.w3.org/2000/svg" height="800" width="1200" id="svg30" y="0" x="0" version="1.1" viewBox="-102.2895 -18.7425 886.509 112.455"><style id="style20" type="text/css">.st1{fill:#becd33}</style><g id="g28"><path id="path22" d="M103.09 74.96h11.4V0h-11.4zM175.62 0h-4.21c-14.69 0-25.61 3.1-32.45 9.21-6.81 6.09-10.27 15.73-10.27 28.66 0 6.7.84 12.47 2.51 17.16 1.65 4.65 4.21 8.49 7.62 11.42 3.42 2.94 7.84 5.11 13.15 6.46 5.35 1.37 11.85 2.06 19.31 2.06h4.46c7.38 0 13.85-.69 19.25-2.06 5.34-1.35 9.79-3.53 13.21-6.46 3.41-2.93 5.98-6.77 7.62-11.42 1.66-4.7 2.51-10.47 2.51-17.16 0-12.92-3.48-22.56-10.33-28.65C201.12 3.1 190.23 0 175.62 0zm23.6 57.4c-5 4.17-13.07 6.29-23.99 6.29h-3.44c-10.92 0-18.99-2.14-23.99-6.35-5.03-4.24-7.59-10.84-7.59-19.6 0-8.67 2.57-15.32 7.64-19.78 5.04-4.43 13.14-6.68 24.06-6.68h3.7c10.67.09 18.61 2.4 23.62 6.87 5.02 4.5 7.57 11.13 7.57 19.71.02 8.76-2.54 15.34-7.58 19.54zM670.47 0v31.91l-77.16-.06v43.12h11.4V43.18h65.76v31.78h11.46V0zM413 11.28h62.99V0H413zm87.61-2.07c-6.81 6.09-10.27 15.73-10.27 28.66 0 6.7.84 12.47 2.51 17.16 1.65 4.65 4.21 8.49 7.62 11.42 3.42 2.94 7.84 5.11 13.15 6.46 5.35 1.37 11.85 2.06 19.31 2.06h46.03V63.69h-45.52c-10.92 0-18.99-2.14-23.99-6.35-5.03-4.24-7.59-10.84-7.59-19.6 0-8.67 2.57-15.32 7.64-19.78 5.04-4.43 13.14-6.68 24.06-6.68h45.39V0h-45.9c-14.68 0-25.6 3.1-32.44 9.21zM387.25 43.12h88.74V31.84h-88.74zm0 31.84h88.74V63.69h-88.74zM83.61 5.41c-1.71-1.64-3.91-2.97-6.56-3.94C74.39.5 71.19 0 67.56 0H0v11.28h67.56c2.99 0 5.39.86 7.14 2.54 1.75 1.7 2.64 4.27 2.64 7.65 0 3.38-.89 5.99-2.63 7.76-1.75 1.78-4.16 2.68-7.15 2.68H11.4v-.06H0v43.12h67.56c3.72 0 6.96-.49 9.62-1.47 2.66-.97 4.86-2.3 6.56-3.94 1.7-1.64 2.96-3.58 3.77-5.78.82-2.22 1.23-4.67 1.23-7.25V50.1c0-7.58-8.92-12.36-12.36-12.36-.14 0-.25-.11-.25-.25s.11-.25.25-.25c3.45 0 12.36-4.77 12.36-12.36v-6.43c0-2.51-.43-4.92-1.29-7.18-.85-2.26-2.14-4.22-3.84-5.86zM77.35 53.5c0 3.38-.89 5.96-2.64 7.65-1.75 1.69-4.15 2.54-7.14 2.54H15.88v.06H11.4V43.12h4.48v.06h53.03c5.6.55 8.44 4.02 8.44 10.32z" fill="#3c9673"/><path id="polygon24" class="st1" d="M348.64 74.96h11.39V11.28h38.61V0h-88.61v11.28h38.61z"/><path id="polygon26" class="st1" d="M232.69 0v74.96h11.39V15.41l66.35 59.55h11V25.63h-11.39v33.18L244.61 0z"/></g></svg>