<svg xmlns="http://www.w3.org/2000/svg" xmlns:xlink="http://www.w3.org/1999/xlink" height="800" width="1200" viewBox="-12.75585 -4.43675 110.5507 26.6205"><defs><path id="a" d="M0 0h85.039v17.747H0z"/></defs><clipPath id="b"><use height="100%" width="100%" overflow="visible" xlink:href="#a"/></clipPath><path d="M21.256 10.633l1.099.009 3.386 7.105 3.529-.657-3.958-7.275c1.573-.948 2.813-2.409 2.813-4.938 0-2.896-2.145-4.453-5.341-4.453H16.99v17.032h3.361V2.71h1.74c1.335 0 2.672.657 2.672 2.579 0 1.233-.731 3.044-3.012 3.065h-.496v2.279zm-7.004-1.039v7.074c-1.699.611-3.488 1.052-5.302 1.052C3.466 17.72 0 13.804 0 8.762 0 4.087 3.444 0 9.041 0c1.744 0 3.489.587 4.531 1.32l-1.02 2.032c-.86-.49-2.197-.906-3.422-.906-3.398 0-5.732 2.473-5.732 6.364 0 4.063 2.674 6.462 5.416 6.462.86 0 1.563-.098 2.243-.416V9.594zM31.075.461h3.316v16.797h-3.316zM41.21 8.096h3.917v2.184H41.21v6.978h-3.315V.461h8.727v2.163H41.21zm6.147.518C47.357 3.817 50.71 0 55.266 0c4.555 0 7.907 3.817 7.907 8.614 0 5.116-3.036 9.105-7.907 9.105-4.872.001-7.909-3.989-7.909-9.105m12.417 0c0-3.156-1.337-6.382-4.509-6.382-3.173 0-4.51 3.226-4.51 6.382 0 3.28 1.179 6.872 4.51 6.872 3.331 0 4.509-3.591 4.509-6.872m8.994 6.087h4.353v2.557h-7.669V.461h3.316zM83.419 3.389c-.707-.504-1.642-.96-2.577-.96-1.346 0-2.075.792-2.075 1.776 0 1.103 1.117 1.942 2.987 3.503 2.145 1.8 3.285 3.216 3.285 5.278 0 2.112-1.916 4.56-5.52 4.56-1.665 0-3.514-.528-4.699-1.679l1.163-1.921c.844.648 1.825 1.345 3.262 1.345 1.323 0 2.486-.744 2.486-2.328 0-1.847-2.145-3.071-3.421-4.127-1.552-1.32-2.853-2.353-2.853-4.583 0-2.256 2.167-4.08 5.064-4.08 1.825 0 3.285.696 4.038 1.464z" fill="#004186" clip-path="url(#b)"/></svg>